<svg id="Layer_1" data-name="Layer 1" xmlns="http://www.w3.org/2000/svg" viewBox="0 0 55.34 21.48"><defs><style>.cls-1{fill:#fff3b4;}.cls-2{fill:#c0dea1;}.cls-3{fill:#f9a060;}.cls-4,.cls-6{fill:none;stroke-miterlimit:10;stroke-width:0.25px;}.cls-4{stroke:#a1a2d1;}.cls-5{fill:#a1a2d1;}.cls-6{stroke:#ddadd0;}.cls-7{fill:#ddadd0;}.cls-8{fill:#a2a5d3;}.cls-9{fill:#bee2cd;}.cls-10{fill:#d281b6;}.cls-11{fill:#f05677;}.cls-12{fill:#5792cd;}</style></defs><circle class="cls-1" cx="7.82" cy="13.03" r="1.74"/><circle class="cls-2" cx="43.54" cy="7.54" r="3.83"/><path class="cls-3" d="M8.15,12.1a1.61,1.61,0,0,1-.93,1.51,3.31,3.31,0,0,1-1.29.3H3.35c-.12,0-.17,0-.17-.09s.1-.08.31-.08.38,0,.42-.08A.9.9,0,0,0,4,13.22V7.81a1.87,1.87,0,0,0,0-.51c0-.08-.22-.13-.51-.13s-.27,0-.27-.11S3.24,7,3.41,7h.12l.2,0H5.68a2.91,2.91,0,0,1,1.61.36,1.34,1.34,0,0,1,.62,1.19A1.39,1.39,0,0,1,7.4,9.66,2.71,2.71,0,0,1,6,10.21v.06a3,3,0,0,1,1.42.38A1.61,1.61,0,0,1,8.15,12.1ZM6.81,8.65a1.51,1.51,0,0,0-.44-1.28A1.54,1.54,0,0,0,5.5,7.2L5,7.23v2.9h.09l.55,0a1.14,1.14,0,0,0,.88-.41A1.61,1.61,0,0,0,6.81,8.65ZM7.1,12a1.43,1.43,0,0,0-1-1.56A4.51,4.51,0,0,0,5,10.34v3q0,.29.06.33a1.36,1.36,0,0,0,.56.07,1.45,1.45,0,0,0,1.1-.44A1.87,1.87,0,0,0,7.1,12Z" transform="translate(-0.66 -1.13)"/><path class="cls-4" d="M7.66,13.29a1.85,1.85,0,0,1-.44.32,3.31,3.31,0,0,1-1.29.3H3.35c-.12,0-.17,0-.17-.09s.1-.08.31-.08.38,0,.42-.08A.9.9,0,0,0,4,13.22V7.81a1.87,1.87,0,0,0,0-.51c0-.08-.22-.13-.51-.13s-.27,0-.27-.11S3.24,7,3.41,7h.12l.2,0H5.68a2.91,2.91,0,0,1,1.61.36,1.34,1.34,0,0,1,.62,1.19A1.39,1.39,0,0,1,7.4,9.66,2.71,2.71,0,0,1,6,10.21v.06a3,3,0,0,1,1.42.38,1.61,1.61,0,0,1,.76,1.45" transform="translate(-0.66 -1.13)"/><path class="cls-5" d="M7.61,11.87a.3.3,0,0,0-.4.15.31.31,0,0,0,0,.19l.37,1a.09.09,0,0,0-.05,0l-.75-.59-.06,0a.29.29,0,0,0-.33,0,.3.3,0,0,0-.07.42.33.33,0,0,0,.15.11h0l.1,0h0l.92.15a.2.2,0,0,0,0,.07l-1,.37,0,0a.31.31,0,0,0,.37.49l0,0h0l0-.06H7l.58-.73,0,0h0l-.14.94v.12a.3.3,0,0,0,.34.26.29.29,0,0,0,.26-.33v0l0,0-.36-.92.06,0,.74.59.06,0h0a.3.3,0,1,0,.24-.55l0,0H8.69l-.94-.14a.08.08,0,0,0,0-.07l.9-.35,0,0a.33.33,0,0,0,.17-.31.3.3,0,0,0-.34-.26.25.25,0,0,0-.17.08h0l0,.06-.59.74H7.64l.14-.95h0v-.06A.29.29,0,0,0,7.61,11.87Z" transform="translate(-0.66 -1.13)"/><path class="cls-4" d="M6.42,7.41l0,0A1.54,1.54,0,0,0,5.5,7.2L5,7.23v2.9h.09l.55,0a1.14,1.14,0,0,0,.88-.41,1.61,1.61,0,0,0,.32-1" transform="translate(-0.66 -1.13)"/><path class="cls-5" d="M7.35,8.45a.29.29,0,0,0,.19-.38.26.26,0,0,0-.12-.15l-.93-.45a.14.14,0,0,0,0-.07l1-.07h.08a.29.29,0,0,0,.23-.24.3.3,0,0,0-.24-.35.35.35,0,0,0-.18,0h0l-.07.06h0l-.77.52a.12.12,0,0,0-.05,0l.45-.93s0,0,0,0A.3.3,0,0,0,6.65,6a.31.31,0,0,0-.36.24v0h0v.09h0l.06.93H6.3l-.54-.79,0-.06,0,0a.31.31,0,0,0-.43,0,.3.3,0,0,0,0,.43l0,0,0,0,.9.43a.1.1,0,0,0,0,.07l-1,.07H5.18A.3.3,0,0,0,5,7.89a.31.31,0,0,0,.39.19l0,0h0l0,0h0l.78-.53.06,0L5.9,8.4l0,0a.31.31,0,0,0,.52.3.31.31,0,0,0,.07-.18h0V8.49l-.07-1h0l0,0L7,8.31H7l0,0A.3.3,0,0,0,7.35,8.45Z" transform="translate(-0.66 -1.13)"/><path class="cls-4" d="M6.67,10.76a1.36,1.36,0,0,0-.59-.33A4.51,4.51,0,0,0,5,10.34v3q0,.29.06.33a1.36,1.36,0,0,0,.56.07,1.45,1.45,0,0,0,1.1-.44A1.87,1.87,0,0,0,7.1,12" transform="translate(-0.66 -1.13)"/><path class="cls-5" d="M7.64,11.78a.29.29,0,0,0,.17-.39.29.29,0,0,0-.12-.15l-.94-.42a.09.09,0,0,0,0-.07l1-.1h.08A.3.3,0,0,0,8,10.4a.31.31,0,0,0-.25-.35.27.27,0,0,0-.18,0h0l-.07.05h0l-.75.54a.1.1,0,0,0-.06,0l.43-.94a.08.08,0,0,1,0,0,.3.3,0,0,0-.25-.34.29.29,0,0,0-.35.25v0h0v.08h0l.09.92h0l0,0L6,9.88l0-.06,0,0a.3.3,0,0,0-.42.05.29.29,0,0,0,0,.42l0,0,0,0,.9.41a.15.15,0,0,0,0,.07l-1,.09H5.44a.3.3,0,0,0-.18.39.3.3,0,0,0,.39.18l0,0h0l0,0h0l.77-.55.06,0-.4.88,0,.05a.3.3,0,0,0,.09.33.3.3,0,0,0,.43,0,.31.31,0,0,0,.07-.18h0v-.08l-.1-.95h0l0,0,.56.77h0l0,.06A.33.33,0,0,0,7.64,11.78Z" transform="translate(-0.66 -1.13)"/><path class="cls-3" d="M12.14,13c0,.37,0,.68,0,.94H12l-.16,0H11l-1.71,0H8.44c-.09,0-.13,0-.13-.07s.13-.06.39-.08c.07,0,.12,0,.13,0a.48.48,0,0,0,0-.22V10.14c0-.38,0-.57-.09-.59a.39.39,0,0,0-.18,0H8.42c-.08,0-.11,0-.11-.08s0-.07.13-.07h1.62c.12,0,.19,0,.19.08s-.11.06-.33.07-.17,0-.19.07a1.57,1.57,0,0,0,0,.43v3.72h.57a2.64,2.64,0,0,0,1.35-.21,1.1,1.1,0,0,0,.28-.72c0-.16,0-.24.11-.24S12.14,12.72,12.14,13Z" transform="translate(-0.66 -1.13)"/><path class="cls-3" d="M17.43,13.78c0,.1-.07.15-.2.15h-2c-.11,0-.17-.07-.17-.2s.12-.2.36-.22.43-.1.43-.25,0-.18-.06-.46-.09-.68-.23-1.65l-.12-.84H14c-.27,1.7-.4,2.68-.4,2.95s0,.23.12.25l.13,0H14l.08.08c.09,0,.13.05.13.15s-.07.17-.21.17l-.36,0a4.24,4.24,0,0,0-.58,0H13l-.09,0-.12,0h0a.13.13,0,0,1-.15-.15c0-.12,0-.18.13-.2a1.16,1.16,0,0,0,.24-.05.4.4,0,0,0,.22-.22c0-.05.2-1,.49-2.83.11-.75.22-1.44.33-2.08,0-.24.06-.41.08-.53s0-.29.08-.52c.11-.68.27-1.7.48-3.07l.15-1,.07-.45c0-.24.08-.37.12-.37a4.74,4.74,0,0,1,.13.69c.19,1.21.71,4.39,1.55,9.56.08.51.15.78.23.81a1.25,1.25,0,0,0,.32.08A.2.2,0,0,1,17.43,13.78Zm-2-3.89-.65-4.22c-.16,1-.38,2.39-.67,4.22Z" transform="translate(-0.66 -1.13)"/><path class="cls-3" d="M19.29,13.86s0,.06-.08.06H17.52c-.11,0-.17,0-.17-.06s.08-.07.23-.07.3,0,.31-.07a3.71,3.71,0,0,0,0-.44V10a2.15,2.15,0,0,0,0-.46s-.06-.07-.15-.07h-.29c-.06,0-.09,0-.09-.07s0-.07.13-.07h1.64c.11,0,.17,0,.17.08s-.12.06-.35.07-.15,0-.17,0a.8.8,0,0,0,0,.28v3.77a.13.13,0,0,0,.07.13,2.1,2.1,0,0,0,.35,0C19.25,13.79,19.29,13.82,19.29,13.86Z" transform="translate(-0.66 -1.13)"/><path class="cls-3" d="M23.94,13.67c0,.21-.18.32-.55.32a1.1,1.1,0,0,1-.88-.41.93.93,0,0,1-.2-.36,8.56,8.56,0,0,1-.12-.85.8.8,0,0,0-.27-.59,1.33,1.33,0,0,0-.77-.19v2.06c0,.09.14.14.5.14.07,0,.1,0,.1.07s0,.07-.14.07H20c-.18,0-.27,0-.27-.07s0-.07.09-.07H20c.23,0,.34,0,.34-.14v-4c0-.08,0-.12-.05-.15a.81.81,0,0,0-.29,0c-.16,0-.23,0-.23-.08s0-.07.13-.07h1.89a1.92,1.92,0,0,1,1.08.27.82.82,0,0,1,.4.72.91.91,0,0,1-.43.79,2.31,2.31,0,0,1-1.21.36,1.77,1.77,0,0,1,1.16.44,2.23,2.23,0,0,1,.4,1.25c0,.41.17.62.37.62,0,0,.05,0,.05,0a.1.1,0,0,0,0-.06.23.23,0,0,1,0-.09q0-.18.21-.18A.19.19,0,0,1,23.94,13.67Zm-1.58-3.24a.78.78,0,0,0-.88-.89.55.55,0,0,0-.28,0s-.05.1-.05.22v1.63C22,11.43,22.36,11.1,22.36,10.43Z" transform="translate(-0.66 -1.13)"/><path class="cls-3" d="M30.73,8.64a1.7,1.7,0,0,1-.83,1.51,2.39,2.39,0,0,1-1.32.34,5.92,5.92,0,0,1-.77-.07v2.84a1.48,1.48,0,0,0,0,.29.28.28,0,0,0,.22.17c.2,0,.39,0,.56,0s.12,0,.12.07-.05.1-.15.1h-2.3c-.2,0-.3,0-.3-.1s.07-.07.21-.07q.48,0,.54-.09a.2.2,0,0,0,.09-.2V7.56c0-.21-.05-.34-.17-.38a.94.94,0,0,0-.35,0h-.17c-.1,0-.15,0-.15-.08s.1-.09.28-.09h2.2a2.76,2.76,0,0,1,1.67.4A1.47,1.47,0,0,1,30.73,8.64Zm-1.05,0c0-1-.42-1.51-1.26-1.51-.27,0-.46,0-.54.14s-.07.14-.07.31v2.68H28A2,2,0,0,0,29.11,10,1.48,1.48,0,0,0,29.68,8.65Z" transform="translate(-0.66 -1.13)"/><path class="cls-6" d="M30.27,9.84a1.64,1.64,0,0,1-.37.31,2.39,2.39,0,0,1-1.32.34,5.92,5.92,0,0,1-.77-.07v2.84a1.48,1.48,0,0,0,0,.29.28.28,0,0,0,.22.17c.2,0,.39,0,.56,0s.12,0,.12.07-.05.1-.15.1h-2.3c-.2,0-.3,0-.3-.1s.07-.07.21-.07q.48,0,.54-.09a.2.2,0,0,0,.09-.2V7.56c0-.21-.05-.34-.17-.38a.94.94,0,0,0-.35,0h-.17c-.1,0-.15,0-.15-.08s.1-.09.28-.09h2.2a2.76,2.76,0,0,1,1.67.4,1.47,1.47,0,0,1,.6,1.27" transform="translate(-0.66 -1.13)"/><path class="cls-7" d="M30.2,8.42a.3.3,0,0,0-.4.16.31.31,0,0,0,0,.19l.39,1a.07.07,0,0,0-.05,0l-.76-.58-.06,0a.32.32,0,0,0-.34,0,.31.31,0,0,0,0,.43.31.31,0,0,0,.15.1h0l.1,0h0l.92.13a.17.17,0,0,0,0,.07l-.95.39,0,0a.29.29,0,0,0-.06.42.3.3,0,0,0,.42.06l0,0h0l0-.07h0l.56-.74,0,0h0l-.13.94V11a.31.31,0,0,0,.35.26.29.29,0,0,0,.25-.34v0l0,0L30.28,10a.09.09,0,0,0,.06,0l.75.58.07.05h0a.3.3,0,0,0,.4-.16.31.31,0,0,0-.17-.4h-.11l-.94-.13a.13.13,0,0,0,0-.06l.89-.37.05,0a.32.32,0,0,0,.16-.31.31.31,0,0,0-.34-.26.37.37,0,0,0-.18.08h0L30.89,9l-.57.75,0,0h0l.12-1h0V8.69A.28.28,0,0,0,30.2,8.42Z" transform="translate(-0.66 -1.13)"/><path class="cls-6" d="M29.28,7.42a1.22,1.22,0,0,0-.86-.28c-.27,0-.46,0-.54.14s-.07.14-.07.31v2.68H28A2,2,0,0,0,29.11,10a1.48,1.48,0,0,0,.57-1.34" transform="translate(-0.66 -1.13)"/><path class="cls-7" d="M30.23,8.44a.29.29,0,0,0,.18-.38.26.26,0,0,0-.12-.15l-.94-.44a.07.07,0,0,0,0-.06l.95-.09h.08a.3.3,0,0,0,.23-.24.29.29,0,0,0-.24-.35.4.4,0,0,0-.19,0h0l-.08.06h0l-.76.53a.1.1,0,0,0-.05,0l.43-.94s0,0,0,0A.3.3,0,0,0,29.48,6a.31.31,0,0,0-.35.25v0h0v.09h0l.08.93h0l0,0-.54-.78-.05-.06,0,0a.3.3,0,0,0-.39.46l0,0,0,0,.9.41a.17.17,0,0,0,0,.07l-1,.09H28a.3.3,0,0,0-.18.39.3.3,0,0,0,.39.18h0l0,0h0l.77-.54.06,0-.41.87,0,.05a.3.3,0,0,0,.52.3.45.45,0,0,0,.07-.18h0V8.5l-.09-1h.07l.55.78h0l0,.06A.31.31,0,0,0,30.23,8.44Z" transform="translate(-0.66 -1.13)"/><path class="cls-3" d="M35.55,11.67a2.3,2.3,0,0,1-.63,1.64,2,2,0,0,1-1.54.68,2.18,2.18,0,0,1-1.63-.69,2.31,2.31,0,0,1-.67-1.67A2.34,2.34,0,0,1,31.72,10a2.17,2.17,0,0,1,1.62-.65,2,2,0,0,1,1.58.68A2.41,2.41,0,0,1,35.55,11.67Zm-.94,0a3,3,0,0,0-.47-1.82.94.94,0,0,0-.83-.43,1.11,1.11,0,0,0-1.06.8A3.78,3.78,0,0,0,32,11.66a3,3,0,0,0,.36,1.61,1.14,1.14,0,0,0,1,.58C34.2,13.85,34.61,13.13,34.61,11.7Z" transform="translate(-0.66 -1.13)"/><path class="cls-3" d="M40,10.58c0,.09,0,.14-.12.14s-.13-.06-.14-.19a1.43,1.43,0,0,0-.17-.64c-.12-.24-.41-.35-.87-.35h-.31v4c0,.12.1.19.29.2s.29,0,.29.08,0,.07-.17.07H37.13c-.13,0-.2,0-.2-.07s.11-.08.33-.08l.16,0c.06,0,.09-.05.09-.11s0-.22,0-.5V9.54a1.81,1.81,0,0,0-1,.16c-.16.11-.26.37-.32.79,0,.15-.06.23-.13.23s-.09-.08-.09-.23,0-.56.09-1.12h2.33l1.26,0,.21,0v.2l0,.36,0,.41,0,.17A.68.68,0,0,1,40,10.58Z" transform="translate(-0.66 -1.13)"/><path class="cls-3" d="M44.2,10.58c0,.09,0,.14-.12.14s-.13-.06-.14-.19a1.43,1.43,0,0,0-.17-.64c-.12-.24-.41-.35-.87-.35h-.31v4c0,.12.1.19.29.2s.29,0,.29.08-.05.07-.17.07H41.37c-.13,0-.2,0-.2-.07s.11-.08.33-.08l.16,0c.06,0,.09-.05.09-.11s0-.22,0-.5V9.54a1.81,1.81,0,0,0-1,.16c-.16.11-.26.37-.32.79,0,.15-.06.23-.13.23s-.09-.08-.09-.23,0-.56.09-1.12h2.33l1.26,0,.21,0v.2l0,.36,0,.41,0,.17A.68.68,0,0,1,44.2,10.58Z" transform="translate(-0.66 -1.13)"/><path class="cls-3" d="M48.34,12.84a1,1,0,0,1,0,.13,1.83,1.83,0,0,0,0,.21v.58a.81.81,0,0,0,0,.2l-1.66,0-1.91,0c-.15,0-.22,0-.22-.08s0-.09.12-.09a.83.83,0,0,0,.38,0s.05-.14.05-.32V10c0-.28,0-.42-.07-.44a2,2,0,0,0-.35,0c-.08,0-.12,0-.12-.07s0-.08.13-.08h3.42v.21c0,.1,0,.4.08.89a.41.41,0,0,1,0,.12c0,.08,0,.13-.07.13s-.1-.07-.12-.2c-.1-.51-.27-.81-.53-.89a4.35,4.35,0,0,0-1-.07h-.51v1.87h.24a1.71,1.71,0,0,0,.79-.11c.1-.07.16-.26.19-.57s.06-.28.12-.28.1.06.1.2,0,.2,0,.37,0,.29,0,.38a8.63,8.63,0,0,0,0,.89v.13c0,.1,0,.16-.09.16s-.1-.09-.12-.25a1.09,1.09,0,0,0-.2-.65,1.68,1.68,0,0,0-.78-.1h-.25v2.16a13.17,13.17,0,0,0,1.73-.08c.26-.08.42-.4.46-1,0-.1,0-.15.11-.15S48.34,12.66,48.34,12.84Z" transform="translate(-0.66 -1.13)"/><path class="cls-3" d="M52.91,13.67c0,.21-.18.32-.55.32a1.1,1.1,0,0,1-.88-.41.93.93,0,0,1-.2-.36,8.56,8.56,0,0,1-.12-.85.8.8,0,0,0-.27-.59,1.34,1.34,0,0,0-.78-.19v2.06c0,.09.15.14.51.14.07,0,.1,0,.1.07s0,.07-.14.07H49c-.18,0-.28,0-.28-.07s0-.07.1-.07h.14c.23,0,.34,0,.34-.14v-4c0-.08,0-.12-.05-.15a.81.81,0,0,0-.29,0c-.16,0-.24,0-.24-.08s.05-.07.14-.07h1.89a1.92,1.92,0,0,1,1.08.27.82.82,0,0,1,.4.72.91.91,0,0,1-.43.79,2.31,2.31,0,0,1-1.21.36,1.77,1.77,0,0,1,1.16.44,2.23,2.23,0,0,1,.4,1.25c0,.41.17.62.37.62,0,0,0,0,0,0a.1.1,0,0,0,0-.06.23.23,0,0,1,0-.09c0-.12.07-.18.2-.18S52.91,13.53,52.91,13.67Zm-1.58-3.24a.78.78,0,0,0-.88-.89.55.55,0,0,0-.28,0s-.06.1-.06.22v1.63C50.93,11.43,51.33,11.1,51.33,10.43Z" transform="translate(-0.66 -1.13)"/><text x="-0.66" y="-1.13"/><circle class="cls-8" cx="2.12" cy="1.3" r="1.3"/><circle class="cls-9" cx="22.23" cy="17.69" r="2.2"/><circle class="cls-10" cx="33.79" cy="3.72" r="1.62"/><circle class="cls-11" cx="52.97" cy="2.37" r="2.37"/><text x="-0.66" y="-1.13"/><circle class="cls-12" cx="48.2" cy="15.75" r="1.45"/><text x="-0.66" y="-1.13"/><text x="-0.66" y="-1.13"/></svg>