<?xml version="1.0" encoding="utf-8"?>
<!-- Generator: Adobe Illustrator 25.2.0, SVG Export Plug-In . SVG Version: 6.00 Build 0)  -->
<svg version="1.1" id="Layer_1" xmlns="http://www.w3.org/2000/svg" xmlns:xlink="http://www.w3.org/1999/xlink" x="0px" y="0px"
	 viewBox="0 0 53.8 20" style="enable-background:new 0 0 53.8 20;" xml:space="preserve">
<style type="text/css">
	.st0{fill:#FFF3B4;}
	.st1{fill:#C0DEA1;}
	.st2{fill:#F9A060;}
	.st3{fill:none;stroke:#A1A2D1;stroke-width:0.25;stroke-miterlimit:10;}
	.st4{fill:#A1A2D1;}
	.st5{fill:#A2A5D3;}
	.st6{fill:#BEE2CD;}
	.st7{fill:#D281B6;}
	.st8{fill:#F05677;}
	.st9{fill:#5792CD;}
</style>
<circle class="st0" cx="7" cy="12.4" r="1.7"/>
<circle class="st1" cx="42.7" cy="6.9" r="3.8"/>
<path class="st2" d="M6.7,10.4c0,0.6-0.3,1.2-0.9,1.5c-0.4,0.2-0.8,0.3-1.3,0.3H1.9c-0.1,0-0.2,0-0.2-0.1S1.8,12,2,12s0.4,0,0.4-0.1
	c0.1-0.1,0.1-0.3,0.1-0.4V6.1c0-0.2,0-0.3,0-0.5c0-0.1-0.2-0.1-0.5-0.1s-0.3,0-0.3-0.1s0-0.1,0.2-0.1h2.2c0.6,0,1.1,0.1,1.6,0.4
	c0.4,0.3,0.6,0.7,0.6,1.2c0,0.4-0.2,0.8-0.5,1.1C5.5,8.2,5,8.4,4.5,8.5v0.1c0.5,0,1,0.1,1.4,0.4C6.4,9.2,6.7,9.8,6.7,10.4z M5.3,6.9
	C5.4,6.4,5.2,6,4.9,5.6C4.6,5.5,4.3,5.4,4,5.5H3.5v2.9h0.7c0.3,0,0.7-0.2,0.9-0.4C5.3,7.7,5.4,7.3,5.3,6.9z M5.6,10.3
	c0.1-0.7-0.3-1.4-1-1.6C4.3,8.6,3.9,8.6,3.5,8.6v3c0,0.2,0,0.3,0.1,0.3C3.8,12,4,12,4.1,12c0.4,0,0.8-0.1,1.1-0.4
	C5.5,11.2,5.7,10.7,5.6,10.3z"/>
<path class="st3" d="M6.2,11.6c-0.1,0.1-0.3,0.2-0.4,0.3c-0.4,0.2-0.8,0.3-1.3,0.3H1.9c-0.1,0-0.2,0-0.2-0.1S1.8,12,2,12
	s0.4,0,0.4-0.1c0.1-0.1,0.1-0.3,0.1-0.4V6.1c0-0.2,0-0.3,0-0.5c0-0.1-0.2-0.1-0.5-0.1s-0.3,0-0.3-0.1s0-0.1,0.2-0.1h2.2
	c0.6,0,1.1,0.1,1.6,0.4c0.4,0.3,0.6,0.7,0.6,1.2c0,0.4-0.2,0.8-0.5,1.1C5.5,8.2,5,8.4,4.5,8.5v0.1c0.5,0,1,0.1,1.4,0.4
	c0.5,0.3,0.8,0.9,0.8,1.5"/>
<path class="st4" d="M6.2,10.1c-0.2-0.1-0.3,0-0.4,0.1c0,0,0,0,0,0l0,0c0,0.1,0,0.1,0,0.2l0.4,1l0,0l-0.8-0.6H5.2
	c-0.1-0.1-0.2-0.1-0.3,0c-0.1,0.1-0.2,0.3-0.1,0.4c0,0,0,0,0,0l0,0c0,0.1,0.1,0.1,0.2,0.1h0.1L6,11.6v0.1L5,12l0,0
	c-0.1,0.1-0.1,0.3,0,0.4c0,0,0,0,0,0c0.1,0.1,0.3,0.1,0.4,0l0,0v0h0.1l0.6-0.7l0,0L6,12.6v0.1C6,12.9,6.1,13,6.3,13l0,0
	c0.2,0,0.3-0.2,0.3-0.3c0,0,0,0,0,0l0,0l-0.4-0.9h0.1L7,12.4H7c0.1,0.1,0.3,0,0.4-0.1c0,0,0,0,0,0c0.1-0.1,0-0.3-0.1-0.4
	c0,0,0,0,0,0H7.2l-0.9-0.1c0,0,0,0,0-0.1l0.9-0.4h0c0.1-0.1,0.2-0.2,0.2-0.3c0-0.2-0.2-0.3-0.3-0.3l0,0c-0.1,0-0.1,0-0.2,0.1l0,0
	v0.1l-0.6,0.7H6.2l0.1-0.9l0,0v-0.1C6.4,10.4,6.3,10.3,6.2,10.1C6.2,10.2,6.2,10.2,6.2,10.1L6.2,10.1z"/>
<path class="st3" d="M4.9,5.7L4.9,5.7C4.7,5.5,4.3,5.4,4,5.5H3.5v2.9h0.7c0.3,0,0.7-0.2,0.9-0.4c0.2-0.3,0.3-0.6,0.3-1"/>
<path class="st4" d="M5.9,6.7c0.1,0,0.2-0.2,0.2-0.3l0,0c0-0.1-0.1-0.1-0.1-0.2L5,5.8c0,0,0,0,0-0.1l1-0.1h0.1
	c0.1,0,0.2-0.1,0.2-0.3c0-0.2-0.1-0.3-0.2-0.3c0,0,0,0,0,0l0,0C6,5,6,5,5.9,5.1l0,0L5.8,5.1l0,0L5.1,5.6l0,0l0.4-0.9l0,0
	c0.1-0.2,0-0.3-0.2-0.4c0,0,0,0,0,0H5.2C5,4.3,4.9,4.4,4.8,4.6l0,0v0l0,0l0.1,0.9H4.8L4.3,4.7V4.7l0,0C4.2,4.6,4,4.6,3.8,4.7
	C3.7,4.8,3.7,5,3.8,5.1l0,0l0,0l0.9,0.4c0,0,0,0,0,0.1l-1,0.1h0C3.5,5.7,3.4,5.9,3.5,6c0,0,0,0,0,0c0,0,0,0.1,0.1,0.1
	c0,0.2,0.2,0.3,0.4,0.3c0,0,0,0,0,0l0,0l0.8-0.5h0.1L4.4,6.7l0,0c0,0.2,0,0.3,0.2,0.4c0,0,0,0,0,0c0.1,0,0.2,0,0.3-0.1
	C5,7,5,6.9,5,6.8l0,0l0,0l-0.1-1l0,0l0.6,0.8l0,0C5.6,6.8,5.8,6.8,5.9,6.7z"/>
<path class="st3" d="M5.2,9C5,8.9,4.8,8.8,4.6,8.7C4.2,8.6,3.9,8.6,3.5,8.6v3c0,0.2,0,0.3,0.1,0.3C3.7,12,3.9,12,4.1,12
	c0.4,0,0.8-0.1,1.1-0.4c0.3-0.4,0.4-0.8,0.4-1.3"/>
<path class="st4" d="M6.2,10C6.3,10,6.4,9.8,6.4,9.7c0,0,0,0,0,0l0,0c0-0.1-0.1-0.1-0.2-0.2L5.2,9.1c0,0,0,0,0-0.1l1-0.1h0.1
	c0.1,0,0.2-0.1,0.2-0.2c0-0.2-0.1-0.3-0.2-0.4c-0.1,0-0.1,0-0.2,0l0,0l0,0.1l0,0L5.3,8.9H5.2L5.6,8l0,0c0-0.2-0.1-0.3-0.2-0.3
	C5.2,7.6,5,7.7,5,7.9l0,0l0,0V8l0,0l0.2,0.9l0,0L4.6,8.1V8.1l0,0C4.4,8,4.3,8,4.1,8.1C4,8.3,4,8.4,4.1,8.5l0,0L5,9C5,9,5,9,5,9
	L4,9.1l0,0c-0.2,0-0.2,0.2-0.2,0.4c0,0,0,0,0,0l0,0c0,0.1,0.2,0.2,0.3,0.2l0,0l0.8-0.6H5L4.6,10l0,0c0,0.1,0,0.2,0.1,0.3
	c0.1,0.1,0.3,0.1,0.4,0l0,0c0,0,0.1-0.1,0.1-0.1l0,0v-0.1L5.1,9.2l0,0L5.6,10l0,0V10C5.7,10.2,5.9,10.2,6.2,10
	C6.1,10.1,6.1,10.1,6.2,10C6.1,10.1,6.2,10.1,6.2,10z"/>
<path class="st2" d="M10.7,11.3v0.9H7c-0.1,0-0.1,0-0.1-0.1s0.1-0.1,0.4-0.1h0.1c0-0.1,0-0.1,0-0.2V8.4c0-0.4,0-0.6-0.1-0.6H6.9
	c-0.1,0-0.1,0-0.1-0.1s0-0.1,0.1-0.1h1.6c0.1,0,0.2,0,0.2,0.1S8.7,7.8,8.4,7.8s-0.2,0-0.2,0.1c0,0.1,0,0.3,0,0.4V12h0.6
	c0.5,0.1,0.9,0,1.4-0.2c0.2-0.2,0.3-0.5,0.3-0.7c0-0.2,0-0.2,0.1-0.2S10.7,11,10.7,11.3z"/>
<path class="st2" d="M16,12c0,0.1-0.1,0.1-0.2,0.1h-2c-0.1,0-0.2-0.1-0.2-0.2s0.1-0.2,0.4-0.2s0.4-0.1,0.4-0.2c0-0.2,0-0.3-0.1-0.5
	c-0.1-0.3-0.1-0.7-0.2-1.7L14,8.6h-1.4c-0.3,1.7-0.4,2.7-0.4,3s0,0.2,0.1,0.2h0.3l0.1,0.1c0.1,0,0.1,0,0.1,0.1s-0.1,0.2-0.2,0.2
	h-1.2c-0.1,0-0.1,0-0.1-0.1c0,0,0,0,0,0l0,0c0-0.1,0-0.2,0.1-0.2c0.1,0,0.2,0,0.2,0c0.1,0,0.2-0.1,0.2-0.2c0-0.1,0.2-1,0.5-2.8
	c0.1-0.8,0.2-1.4,0.3-2.1c0-0.2,0-0.4,0.1-0.5c0-0.2,0-0.4,0.1-0.5C12.8,5,13,4,13.2,2.7l0.1-1l0.1-0.5c0-0.2,0.1-0.4,0.1-0.4
	c0.1,0.2,0.1,0.4,0.1,0.6c0.2,1.2,0.7,4.4,1.5,9.6c0.1,0.5,0.1,0.8,0.2,0.8c0.1,0,0.2,0.1,0.3,0.1C15.9,11.9,16,12,16,12z M14,8.2
	l-0.6-4.2l-0.7,4.2H14z"/>
<path class="st2" d="M17.8,12.1C17.8,12.1,17.8,12.2,17.8,12.1L16,12.2c-0.1,0-0.2,0-0.2-0.1s0.1-0.1,0.2-0.1s0.3,0,0.3-0.1
	c0-0.1,0-0.3,0-0.4V8.3c0-0.2,0-0.3,0-0.5c0,0-0.1-0.1-0.1-0.1H16c-0.1,0-0.1,0-0.1-0.1s0-0.1,0.1-0.1h1.6c0.1,0,0.2,0,0.2,0.1
	s-0.1,0.1-0.4,0.1h-0.2c0,0.1,0,0.2,0,0.3v3.8c0,0.1,0,0.1,0.1,0.1h0.4C17.8,12.1,17.8,12.1,17.8,12.1z"/>
<path class="st2" d="M22.5,11.9c0,0.2-0.2,0.3-0.5,0.3c-0.3,0-0.7-0.1-0.9-0.4c-0.1-0.1-0.2-0.2-0.2-0.4c0-0.3-0.1-0.6-0.1-0.9
	c0-0.2-0.1-0.4-0.3-0.6c-0.2-0.1-0.5-0.2-0.8-0.2v2.1c0,0.1,0.1,0.1,0.5,0.1c0.1,0,0.1,0,0.1,0.1s0,0.1-0.1,0.1h-1.6
	c-0.2,0-0.3,0-0.3-0.1s0-0.1,0.1-0.1h0.2c0.2,0,0.3,0,0.3-0.1v-4c0-0.1,0-0.1,0-0.1c-0.1,0-0.2,0-0.3,0c-0.2,0-0.2,0-0.2-0.1
	s0-0.1,0.1-0.1h1.9c0.4,0,0.8,0.1,1.1,0.3c0.3,0.2,0.4,0.4,0.4,0.7c0,0.3-0.2,0.6-0.4,0.8c-0.4,0.2-0.8,0.4-1.2,0.4
	c0.4,0,0.8,0.2,1.2,0.4c0.3,0.4,0.4,0.8,0.4,1.2c0,0.4,0.2,0.6,0.4,0.6h0.1c0,0,0,0,0-0.1c0,0,0-0.1,0-0.1c0-0.1,0.1-0.2,0.2-0.2
	C22.5,11.8,22.5,11.9,22.5,11.9z M20.9,8.7c0.1-0.4-0.2-0.8-0.6-0.9H20c-0.1,0-0.2,0-0.3,0c0,0.1,0,0.1,0,0.2v1.6
	C20.5,9.7,20.9,9.4,20.9,8.7z"/>
<path class="st2" d="M29.2,6.9c0,0.6-0.3,1.2-0.8,1.5c-0.4,0.2-0.9,0.4-1.3,0.3c-0.3,0-0.5,0-0.8-0.1v2.8c0,0.1,0,0.2,0,0.3
	c0,0.1,0.1,0.2,0.2,0.2h0.6c0.2,0,0.1,0,0.1,0.1s0,0.1-0.1,0.1h-2.3c-0.2,0-0.3,0-0.3-0.1s0.1-0.1,0.2-0.1c0.3,0,0.5,0,0.5-0.1
	c0.1,0,0.1-0.1,0.1-0.2V5.8c0-0.2,0-0.3-0.2-0.4c-0.1,0-0.2,0-0.4,0h-0.2c-0.1,0-0.1,0-0.1-0.1s0.1-0.1,0.3-0.1H27
	c0.6-0.1,1.2,0.1,1.7,0.4C29,6,29.3,6.4,29.2,6.9z M28.2,6.9c0-1-0.4-1.5-1.2-1.5c-0.3,0-0.5,0-0.5,0.1c-0.1,0.1-0.1,0.2-0.1,0.3
	v2.7h0.2c0.4,0,0.8-0.1,1.1-0.3C28,7.9,28.2,7.4,28.2,6.9L28.2,6.9z"/>
<path class="st3" d="M28.8,8.1c-0.1,0.1-0.2,0.2-0.4,0.3c-0.4,0.2-0.9,0.4-1.3,0.3c-0.3,0-0.5,0-0.8-0.1v2.8c0,0.1,0,0.2,0,0.3
	c0,0.1,0.1,0.2,0.2,0.2h0.6c0.2,0,0.1,0,0.1,0.1s0,0.1-0.1,0.1h-2.3c-0.2,0-0.3,0-0.3-0.1s0.1-0.1,0.2-0.1c0.3,0,0.5,0,0.5-0.1
	c0.1,0,0.1-0.1,0.1-0.2V5.8c0-0.2,0-0.3-0.2-0.4c-0.1,0-0.2,0-0.4,0h-0.2c-0.1,0-0.1,0-0.1-0.1s0.1-0.1,0.3-0.1H27
	c0.6-0.1,1.2,0.1,1.7,0.4C29,6,29.3,6.5,29.2,6.9"/>
<path class="st4" d="M28.7,6.7c-0.2-0.1-0.3,0-0.4,0.1c0,0,0,0,0,0l0,0c0,0.1,0,0.1,0,0.2l0.4,1h0l-0.8-0.6h-0.1
	c-0.1-0.1-0.3-0.1-0.4,0c-0.1,0.1-0.1,0.3,0,0.4l0,0c0,0,0.1,0.1,0.1,0.1h0.1l0.9,0.1v0.1l-1,0.4l0,0c-0.1,0.1-0.2,0.3-0.1,0.4l0,0
	c0.1,0.1,0.3,0.2,0.4,0.1l0,0l0,0v0l0,0l0.6-0.7l0,0l-0.1,0.9v0.1c0,0.2,0.2,0.3,0.4,0.3c0.2,0,0.3-0.2,0.3-0.3c0,0,0,0,0,0l0,0l0,0
	l-0.3-0.9c0,0,0,0,0.1,0l0.8,0.6l0.1,0.1l0,0c0.2,0.1,0.3,0,0.4-0.1c0,0,0,0,0,0l0,0c0.1-0.2,0-0.3-0.2-0.4h-0.1l-0.9-0.1V8.1
	l0.9-0.4h0C29.9,7.7,30,7.5,30,7.4c-0.1-0.1-0.2-0.2-0.3-0.2c-0.1,0-0.1,0-0.2,0.1l0,0l0,0L28.9,8l0,0L29,7l0,0V7
	C29,6.8,28.9,6.7,28.7,6.7z"/>
<path class="st3" d="M27.8,5.7c-0.2-0.2-0.5-0.3-0.9-0.3c-0.3,0-0.5,0-0.5,0.1c-0.1,0.1-0.1,0.2-0.1,0.3v2.7h0.2
	c0.4,0,0.8-0.1,1.1-0.3c0.4-0.3,0.6-0.8,0.5-1.3"/>
<path class="st4" d="M28.8,6.7c0.2-0.1,0.2-0.2,0.2-0.4c0,0,0,0,0,0l0,0c0-0.1-0.1-0.1-0.1-0.2l-0.9-0.4c0,0,0,0,0-0.1l1-0.1h0.1
	c0.1,0,0.2-0.1,0.3-0.2c0-0.2-0.1-0.3-0.2-0.3l0,0c-0.1,0-0.1,0-0.2,0l0,0l-0.1,0.1l0,0l-0.8,0.5h0l0.4-0.9l0,0c0-0.2,0-0.3-0.2-0.4
	l0,0c-0.2,0-0.3,0.1-0.4,0.2l0,0v0.1l0,0l0.1,0.9l0,0l-0.7-0.8V4.7l0,0c-0.1-0.1-0.3-0.1-0.4,0c-0.1,0.1-0.1,0.3,0,0.4l0,0l0,0
	l0.9,0.4v0.1l-1,0.1h-0.1c-0.2,0-0.2,0.2-0.2,0.4c0,0,0,0,0,0l0,0c0,0.2,0.2,0.2,0.4,0.2c0,0,0,0,0,0l0,0l0.8-0.5h0.1l-0.4,0.9l0,0
	c-0.1,0.1,0,0.3,0.1,0.4c0.1,0.1,0.3,0,0.4-0.1l0,0c0-0.1,0.1-0.1,0.1-0.2l0,0l0,0l-0.1-1h0.1l0.5,0.8l0,0v0.1
	C28.4,6.7,28.5,6.8,28.8,6.7C28.7,6.7,28.7,6.7,28.8,6.7L28.8,6.7z"/>
<path class="st2" d="M34.1,9.9c0,0.6-0.2,1.2-0.6,1.6c-0.4,0.4-1,0.7-1.5,0.7c-0.6,0-1.2-0.2-1.6-0.7c-0.9-0.9-0.9-2.4,0-3.3
	c0.4-0.4,1-0.7,1.6-0.6c0.6,0,1.2,0.2,1.6,0.7C33.9,8.8,34.1,9.3,34.1,9.9z M33.1,9.9c0-0.6-0.1-1.3-0.5-1.8
	c-0.2-0.3-0.5-0.4-0.8-0.4c-0.5,0-0.9,0.3-1.1,0.8c-0.2,0.5-0.3,0.9-0.2,1.4c0,0.6,0.1,1.1,0.4,1.6c0.2,0.4,0.6,0.6,1,0.6
	C32.7,12.1,33.1,11.4,33.1,9.9L33.1,9.9z"/>
<path class="st2" d="M38.5,8.8c0,0.1,0,0.1-0.1,0.1s-0.1-0.1-0.1-0.2c0-0.2-0.1-0.4-0.2-0.6c-0.1-0.2-0.4-0.3-0.9-0.3h-0.3v4
	c0,0.1,0.1,0.2,0.3,0.2s0.3,0,0.3,0.1s0,0.1-0.2,0.1h-1.7c-0.1,0-0.2,0-0.2-0.1s0.1-0.1,0.3-0.1h0.2c0.1,0,0.1,0,0.1-0.1V7.8
	c-0.3,0-0.7,0-1,0.2c-0.2,0.1-0.3,0.4-0.3,0.8c0,0.1-0.1,0.2-0.1,0.2s-0.1-0.1-0.1-0.2c0-0.4,0-0.7,0.1-1.1h3.8v1.1L38.5,8.8z"/>
<path class="st2" d="M42.7,8.8c0,0.1,0,0.1-0.1,0.1s-0.1-0.1-0.1-0.2c0-0.2-0.1-0.4-0.2-0.6c-0.1-0.2-0.4-0.3-0.9-0.3h-0.3v4
	c0,0.1,0.1,0.2,0.3,0.2s0.3,0,0.3,0.1s0,0.1-0.2,0.1h-1.6c-0.1,0-0.2,0-0.2-0.1S39.8,12,40,12h0.2c0.1,0,0.1,0,0.1-0.1V7.8
	c-0.3,0-0.7,0-1,0.2C39.1,8.1,39,8.3,39,8.8C39,8.9,38.9,9,38.8,9s-0.1-0.1-0.1-0.2c0-0.4,0-0.7,0.1-1.1h3.8v1.1L42.7,8.8z"/>
<path class="st2" d="M46.9,11.1V12c0,0.1,0,0.1,0,0.2h-3.6c-0.2,0-0.2,0-0.2-0.1s0-0.1,0.1-0.1c0.1,0,0.3,0,0.4,0c0-0.1,0-0.2,0-0.3
	V8.3c0-0.3,0-0.4-0.1-0.4h-0.3c-0.1,0-0.1,0-0.1-0.1s0-0.1,0.1-0.1h3.4v0.2c0,0.3,0,0.6,0.1,0.9c0,0,0,0.1,0,0.1
	c0,0.1,0,0.1-0.1,0.1S46.5,9,46.5,8.8C46.4,8.3,46.2,8,46,7.9c-0.3-0.1-0.7-0.1-1-0.1h-0.5v1.9h0.2c0.3,0,0.5,0,0.8-0.1
	c0.1-0.1,0.2-0.3,0.2-0.6s0.1-0.3,0.1-0.3s0.1,0.1,0.1,0.2v0.8c0,0.3,0,0.6,0,0.9v0.1c0,0.1,0,0.2-0.1,0.2s-0.1-0.1-0.1-0.2
	c0-0.2-0.1-0.5-0.2-0.6c-0.2-0.1-0.5-0.1-0.8-0.1h-0.2v2.2c0.6,0,1.1,0,1.7-0.1c0.3-0.1,0.4-0.4,0.5-1c0-0.1,0-0.1,0.1-0.1
	S46.9,10.9,46.9,11.1z"/>
<path class="st2" d="M51.4,11.9c0,0.2-0.2,0.3-0.5,0.3c-0.3,0-0.7-0.1-0.9-0.4c-0.1-0.1-0.2-0.2-0.2-0.4c0-0.3-0.1-0.6-0.1-0.9
	c0-0.2-0.1-0.4-0.3-0.6c-0.2-0.1-0.5-0.2-0.8-0.2v2.1c0,0.1,0.2,0.1,0.5,0.1c0.1,0,0.1,0,0.1,0.1s0,0.1-0.1,0.1h-1.6
	c-0.2,0-0.3,0-0.3-0.1s0-0.1,0.1-0.1h0.1c0.2,0,0.3,0,0.3-0.1v-4c0-0.1,0-0.1,0-0.1c-0.1,0-0.2,0-0.3,0c-0.2,0-0.2,0-0.2-0.1
	s0-0.1,0.1-0.1h1.9c0.4,0,0.8,0.1,1.1,0.3c0.3,0.2,0.4,0.4,0.4,0.7c0,0.3-0.2,0.6-0.4,0.8c-0.4,0.2-0.8,0.4-1.2,0.4
	c0.4,0,0.8,0.2,1.2,0.4c0.3,0.4,0.4,0.8,0.4,1.2c0,0.4,0.2,0.6,0.4,0.6l0,0c0,0,0,0,0-0.1c0,0,0-0.1,0-0.1c0-0.1,0.1-0.2,0.2-0.2
	S51.4,11.8,51.4,11.9z M49.8,8.7c0.1-0.4-0.2-0.8-0.7-0.9H49c-0.1,0-0.2,0-0.3,0c0,0.1-0.1,0.1-0.1,0.2v1.6
	C49.5,9.7,49.8,9.4,49.8,8.7z"/>
<circle class="st5" cx="1.7" cy="1.5" r="1.3"/>
<circle class="st6" cx="21.4" cy="17.8" r="2.2"/>
<circle class="st7" cx="33" cy="3.1" r="1.6"/>
<circle class="st8" cx="51" cy="2.8" r="2.4"/>
<circle class="st9" cx="47.4" cy="15.1" r="1.5"/>
</svg>
